<svg xmlns="http://www.w3.org/2000/svg" version="1.1" xmlns:xlink="http://www.w3.org/1999/xlink" xmlns:svgjs="http://svgjs.dev/svgjs" width="1000" height="535" viewBox="0 0 1000 535"><g transform="matrix(1,0,0,1,-0.6060585657240836,-0.09648404940514865)"><svg viewBox="0 0 396 212" data-background-color="#ffffff" preserveAspectRatio="xMidYMid meet" height="535" width="1000" xmlns="http://www.w3.org/2000/svg" xmlns:xlink="http://www.w3.org/1999/xlink"><g id="tight-bounds" transform="matrix(1,0,0,1,0.23999944451838928,0.03823293172690967)"><svg viewBox="0 0 395.52 211.92353413654618" height="211.92353413654618" width="395.52"><g><svg viewBox="0 0 395.52 211.92353413654618" height="211.92353413654618" width="395.52"><g><svg viewBox="0 0 395.52 211.92353413654618" height="211.92353413654618" width="395.52"><g id="textblocktransform"><svg viewBox="0 0 395.52 211.92353413654618" height="211.92353413654618" width="395.52" id="textblock"><g><svg viewBox="0 0 395.52 211.92353413654618" height="211.92353413654618" width="395.52"><g transform="matrix(1,0,0,1,0,0)"><svg width="395.52" viewBox="-2.3499999046325684 -54.400001525878906 149.38999938964844 80.05000305175781" height="211.92353413654618" data-palette-color="#000000"><path d="M59.1-9Q59.9-8.55 59.9-6.95L59.9-6.95Q59.9-5 58.93-3.03 57.95-1.05 56.18 0.25 54.4 1.55 52.05 1.55L52.05 1.55Q48.15 1.55 46.1-2.05 44.05-5.65 44.05-11.25L44.05-11.25Q44.05-14.6 44.75-18.45 45.45-22.3 46.45-25.65L46.45-25.65Q44.45-22.75 41.98-18.78 39.5-14.8 33.45-4.75L33.45-4.75Q32.35-2.9 32.35-2.1L32.35-2.1Q32.35-1.85 32.43-1.63 32.5-1.4 32.5-1.25L32.5-1.25Q32.5-1 32.1-0.9L32.1-0.9Q30.6-0.4 30.13-0.15 29.65 0.1 29.55 0.1L29.55 0.1Q29.25 0.1 29-0.4L29-0.4Q29.25-0.55 29.38-0.9 29.5-1.25 29.5-2.2L29.5-2.2Q29.5-4.65 28.55-11.58 27.6-18.5 26.6-24.5L26.6-24.5Q23.4-16.45 20.63-11.13 17.85-5.8 14.23-2.35 10.6 1.1 6.05 1.1L6.05 1.1Q3.4 1.1 1.5-0.05-0.4-1.2-1.38-3.18-2.35-5.15-2.35-7.5L-2.35-7.5Q-2.35-9.6-1.65-11.28-0.95-12.95 0.1-13.9 1.15-14.85 2.15-14.85L2.15-14.85Q2.65-14.85 2.95-14.6L2.95-14.6Q0.4-11.9 0.4-8.2L0.4-8.2Q0.4-5.15 1.98-3.45 3.55-1.75 6.5-1.75L6.5-1.75Q10.35-1.75 13.4-4.75 16.45-7.75 19.13-13.1 21.8-18.45 25.85-28.3L25.85-28.3Q25.8-28.65 25.75-29.05 25.7-29.45 25.6-29.85L25.6-29.85Q25.5-30.4 25.28-32.02 25.05-33.65 25.05-34.45L25.05-34.45Q25.05-35.4 25.55-35.83 26.05-36.25 26.75-36.25L26.75-36.25Q27.55-36.25 28.33-35.77 29.1-35.3 29.1-34.05L29.1-34.05Q29.1-33.75 28.8-31.45L28.8-31.45Q28.4-28.55 28.35-27.65L28.35-27.65Q28.75-25.15 30.05-16.15L30.05-16.15 31.5-6.15Q42.5-24.8 47.5-32.3L47.5-32.3Q49.65-35.5 50.83-36.77 52-38.05 52.95-38.05L52.95-38.05Q53.8-38.05 54.5-37.23 55.2-36.4 55.45-35.5L55.45-35.5Q54.1-35.5 52.8-34.33 51.5-33.15 50.4-31L50.4-31Q48.55-27.4 47.65-22.25 46.75-17.1 46.75-12.55L46.75-12.55Q46.75-7.1 48.15-4 49.55-0.9 52.45-0.9L52.45-0.9Q54.95-0.9 56.68-3.1 58.4-5.3 59.1-9L59.1-9ZM89.55-17.65Q90.05-17.5 90.05-16.65L90.05-16.65Q90.05-15.4 89.05-14.08 88.05-12.75 86.32-11.9 84.6-11.05 82.55-11.05L82.55-11.05Q79.8-11.05 77.7-12.55L77.7-12.55Q77.4-11.1 76.95-9.6L76.95-9.6Q76.8-9.05 76.3-7.08 75.8-5.1 75.6-3.55L75.6-3.55Q75.25-2.75 74.2-1.83 73.15-0.9 71.7-0.25 70.25 0.4 68.85 0.4L68.85 0.4Q67.3 0.4 65.85-0.4 64.4-1.2 63.47-2.55 62.55-3.9 62.55-5.55L62.55-5.55Q63.25-7.65 63.7-9.5 64.15-11.35 64.55-13.25L64.55-13.25 65.05-15.75Q65.3-16.9 66.4-18.03 67.5-19.15 69.07-19.88 70.65-20.6 72.25-20.6L72.25-20.6Q72.85-20.6 73.95-20.4L73.95-20.4Q74.1-21.55 74.47-22 74.85-22.45 75.7-22.45L75.7-22.45Q76.2-22.45 76.85-22.3L76.85-22.3Q76.6-20.9 76.6-19.9L76.6-19.9Q76.6-17 78.35-15 80.1-13 83.1-13L83.1-13Q85.35-13 86.97-14.2 88.6-15.4 89.55-17.65L89.55-17.65ZM73.4-4.4Q73.8-6.4 74.55-8.95L74.55-8.95Q75.55-12.3 75.85-14.35L75.85-14.35Q74.75-15.75 74.35-17.75L74.35-17.75Q74.35-17.95 74.27-18.07 74.2-18.2 73.95-18.25L73.95-18.25Q73.2-18.55 72.25-18.55L72.25-18.55Q70.4-18.55 69.05-17.55 67.7-16.55 67.35-15.15L67.35-15.15Q67.2-14.55 66.25-10.45L66.25-10.45Q65.8-8.05 65.15-5.7L65.15-5.7Q65.15-3.85 66.4-2.83 67.65-1.8 69.05-1.8L69.05-1.8Q70.25-1.8 71.62-2.65 73-3.5 73.4-4.4L73.4-4.4ZM112.55-54.4Q116.84-54.4 119.34-52.03 121.84-49.65 121.84-45.35L121.84-45.35 121.5-44.75Q120.4-48.15 118.05-49.78 115.7-51.4 112.4-51.4L112.4-51.4Q105.45-51.4 100.59-43.58 95.75-35.75 92.2-21L92.2-21 90.9-15.35 90.25-12.45Q92.3-15.35 95.45-18.07 98.59-20.8 100.2-20.8L100.2-20.8Q100.59-20.8 101.37-20.05 102.15-19.3 102.15-18.95L102.15-18.95Q101.2-16.2 99.9-10.9 98.59-5.6 98.59-4.15L98.59-4.15Q98.59-2.75 99.05-2.13 99.5-1.5 100.9-1.5L100.9-1.5Q103.4-1.5 105.75-3.4 108.09-5.3 109.82-7.73 111.55-10.15 112.45-12L112.45-12Q112.8-11.9 113-11.65 113.2-11.4 113.25-10.9L113.25-10.9 113.25-10.75Q113.25-10.15 112.84-9.35L112.84-9.35Q110.55-5.15 106.95-2.27 103.34 0.6 99.95 0.6L99.95 0.6Q98.2 0.6 97.15-0.5 96.09-1.6 96.09-3.6L96.09-3.6Q96.09-5.55 96.72-8.4 97.34-11.25 98.4-15.1L98.4-15.1Q98.34-14.85 98.95-17.15L98.95-17.15Q98.9-17.35 98.7-17.5 98.5-17.65 98.34-17.65L98.34-17.65Q97.84-17.65 96-16 94.15-14.35 92.25-12.05 90.34-9.75 89.4-7.75L89.4-7.75Q88.9-5.75 88.4-2.75L88.4-2.75Q88.34-2.4 88.3-2 88.25-1.6 88.15-1.2L88.15-1.2Q88-0.3 87.87 0.03 87.75 0.35 87.45 0.35L87.45 0.35Q86.84 0.35 86.09 0.05 85.34-0.25 85.34-0.7L85.34-0.7Q85.34-1.35 85.65-2.6L85.65-2.6 90-21.05Q93.65-36.65 99.3-45.53 104.95-54.4 112.55-54.4L112.55-54.4ZM131.24-11.95Q132.14-11.8 132.14-10.95L132.14-10.95Q132.14-8.95 129.57-6.28 126.99-3.6 123.49-1.68 119.99 0.25 117.64 0.25L117.64 0.25Q115.39 0.25 113.74-0.93 112.09-2.1 111.22-3.55 110.34-5 110.34-5.7L110.34-5.7Q111.14-8.55 112.09-13.6L112.09-13.6 112.64-16.4Q112.84-17.4 114.09-18.48 115.34-19.55 116.89-20.28 118.44-21 119.39-21L119.39-21Q120.14-21 121.22-20.53 122.29-20.05 123.12-19.05 123.94-18.05 123.94-16.5L123.94-16.5Q123.94-14.7 122.74-13.1 121.54-11.5 119.19-10.5 116.84-9.5 113.54-9.5L113.54-9.5 112.84-6.15Q112.84-5.7 113.37-4.65 113.89-3.6 115.07-2.75 116.24-1.9 118.04-1.9L118.04-1.9Q120.44-1.9 123.09-3.48 125.74-5.05 127.94-7.4 130.14-9.75 131.24-11.95L131.24-11.95ZM118.99-18.95Q118.39-18.95 117.44-18.45 116.49-17.95 115.72-17.2 114.94-16.45 114.79-15.8L114.79-15.8Q114.29-13.55 113.89-11.25L113.89-11.25Q117.74-11.4 119.69-12.78 121.64-14.15 121.64-15.9L121.64-15.9Q121.64-17.15 120.74-18.05 119.84-18.95 118.99-18.95L118.99-18.95ZM144.54-20.9Q145.19-20.9 146.02-20.38 146.84-19.85 147.04-19.2L147.04-19.2Q146.44-17.2 145.89-15L145.89-15Q145.64-14.15 144.84-11.28 144.04-8.4 142.74-4.25L142.74-4.25Q139.84 4.9 137.02 11.03 134.19 17.15 129.29 21.4 124.39 25.65 117.09 25.65L117.09 25.65Q113.44 25.65 110.99 24.55 108.54 23.45 107.37 21.7 106.19 19.95 106.19 17.85L106.19 17.85Q106.19 17.15 106.34 16.78 106.49 16.4 106.59 16.1L106.59 16.1Q108.14 19.25 110.72 20.88 113.29 22.5 117.54 22.5L117.54 22.5Q123.24 22.5 127.39 19.58 131.54 16.65 134.54 11.03 137.54 5.4 139.94-3.3L139.94-3.3Q138.44-1.95 136.52-0.98 134.59 0 133.34 0L133.34 0Q132.39 0 131.52-0.6 130.64-1.2 130.07-2.13 129.49-3.05 129.49-3.85L129.49-3.85Q130.84-10 132.04-15.1L132.04-15.1Q132.64-17.8 132.99-19.3L132.99-19.3Q133.19-20.1 133.54-20.4 133.89-20.7 134.64-20.7L134.64-20.7Q135.29-20.7 135.94-20.45L135.94-20.45 132.14-4.45Q132.14-3.7 132.77-3.05 133.39-2.4 134.14-2.4L134.14-2.4Q135.24-2.4 137.54-3.85 139.84-5.3 140.64-6.35L140.64-6.35Q141.74-9.05 142.44-11.75 143.14-14.45 144.04-18.6L144.04-18.6 144.54-20.9Z" opacity="1" transform="matrix(1,0,0,1,0,0)" fill="#000000" class="undefined-text-0" data-fill-palette-color="primary" id="text-0"></path></svg></g></svg></g></svg></g></svg></g></svg></g><defs></defs></svg><rect width="395.52" height="211.92353413654618" fill="none" stroke="none" visibility="hidden"></rect></g></svg></g></svg>